<svg width="153" height="46" viewBox="0 0 153 46" fill="none" xmlns="http://www.w3.org/2000/svg">
<g clip-path="url(#clip0)">
<path d="M147.224 46H5.34744C2.39951 46 0 43.5528 0 40.557V5.4349C0 2.438 2.39951 0 5.34744 0H147.224C150.171 0 152.655 2.438 152.655 5.4349V40.557C152.655 43.5528 150.171 46 147.224 46Z" fill="#A6A6A6"/>
<path d="M151.56 40.5581C151.56 42.9915 149.622 44.9626 147.225 44.9626H5.34743C2.95131 44.9626 1.00638 42.9915 1.00638 40.5581V5.43369C1.00638 3.00144 2.95131 1.02344 5.34743 1.02344H147.224C149.622 1.02344 151.559 3.00144 151.559 5.43369L151.56 40.5581Z" fill="black"/>
<path d="M34.068 22.7516C34.0352 19.0452 37.0522 17.242 37.1901 17.158C35.4815 14.6246 32.8332 14.2784 31.9026 14.2508C29.6784 14.0128 27.5208 15.6044 26.3878 15.6044C25.2321 15.6044 23.4874 14.2738 21.6069 14.3129C19.187 14.3509 16.9232 15.7757 15.6816 17.9883C13.1193 22.4998 15.0303 29.1295 17.4852 32.7762C18.7132 34.5621 20.1482 36.5562 22.0264 36.4861C23.8639 36.409 24.5503 35.2947 26.7677 35.2947C28.9648 35.2947 29.6094 36.4861 31.5249 36.4412C33.497 36.409 34.7386 34.6472 35.9236 32.8452C37.3428 30.7982 37.9127 28.7822 37.9353 28.6787C37.8889 28.6626 34.1054 27.1941 34.068 22.7516Z" fill="white"/>
<path d="M30.4495 11.852C31.4378 10.5951 32.114 8.88501 31.9263 7.14966C30.4959 7.21406 28.707 8.15591 27.6769 9.38526C26.7655 10.4686 25.9513 12.2442 26.1616 13.914C27.7685 14.0359 29.4183 13.0894 30.4495 11.852Z" fill="white"/>
<path d="M60.6605 36.2297H58.0925L56.6858 31.7344H51.7964L50.4564 36.2297H47.9562L52.8005 20.9255H55.7925L60.6605 36.2297ZM56.2618 29.8484L54.9897 25.8521C54.8551 25.4439 54.6029 24.4825 54.2309 22.9691H54.1857C54.0376 23.62 53.799 24.5814 53.471 25.8521L52.2215 29.8484H56.2618Z" fill="white"/>
<path d="M73.1183 30.5763C73.1183 32.4531 72.6196 33.9366 71.6222 35.0257C70.7289 35.9951 69.6196 36.4793 68.2955 36.4793C66.8662 36.4793 65.8395 35.9572 65.2141 34.913H65.1689V40.7262H62.7581V28.8272C62.7581 27.6473 62.7276 26.4363 62.6688 25.1943H64.789L64.9235 26.9435H64.9688C65.7727 25.6256 66.9928 24.9678 68.6302 24.9678C69.9103 24.9678 70.9788 25.4818 71.8337 26.5111C72.6908 27.5415 73.1183 28.8962 73.1183 30.5763ZM70.6622 30.666C70.6622 29.5919 70.4248 28.7064 69.9476 28.0095C69.4263 27.2827 68.7263 26.9193 67.8488 26.9193C67.2541 26.9193 66.7135 27.1217 66.2307 27.5208C65.7467 27.9233 65.4301 28.4488 65.282 29.0997C65.2074 29.4033 65.17 29.6517 65.17 29.8472V31.6872C65.17 32.4899 65.412 33.1673 65.896 33.7204C66.38 34.2736 67.0087 34.5496 67.7821 34.5496C68.6901 34.5496 69.3969 34.1931 69.9023 33.4824C70.4089 32.7705 70.6622 31.8321 70.6622 30.666Z" fill="white"/>
<path d="M85.5987 30.5763C85.5987 32.4531 85.1 33.9366 84.1015 35.0257C83.2093 35.9951 82.1 36.4793 80.7759 36.4793C79.3466 36.4793 78.3199 35.9572 77.6957 34.913H77.6504V40.7262H75.2396V28.8272C75.2396 27.6473 75.2091 26.4363 75.1503 25.1943H77.2705L77.4051 26.9435H77.4503C78.2531 25.6256 79.4733 24.9678 81.1118 24.9678C82.3907 24.9678 83.4592 25.4818 84.3164 26.5111C85.1701 27.5415 85.5987 28.8962 85.5987 30.5763ZM83.1426 30.666C83.1426 29.5919 82.904 28.7064 82.4268 28.0095C81.9056 27.2827 81.2079 26.9193 80.3293 26.9193C79.7333 26.9193 79.194 27.1217 78.71 27.5208C78.226 27.9233 77.9105 28.4488 77.7624 29.0997C77.6889 29.4033 77.6504 29.6517 77.6504 29.8472V31.6872C77.6504 32.4899 77.8924 33.1673 78.3741 33.7204C78.8581 34.2724 79.4868 34.5496 80.2625 34.5496C81.1706 34.5496 81.8773 34.1931 82.3827 33.4824C82.8893 32.7705 83.1426 31.8321 83.1426 30.666Z" fill="white"/>
<path d="M99.5525 31.9378C99.5525 33.2396 99.1081 34.2988 98.2159 35.1164C97.2355 36.01 95.8707 36.4562 94.1168 36.4562C92.4975 36.4562 91.1994 36.1388 90.2168 35.5028L90.7754 33.4593C91.8338 34.1102 92.9951 34.4368 94.2604 34.4368C95.1684 34.4368 95.8752 34.2275 96.3829 33.8112C96.8883 33.3949 97.1405 32.836 97.1405 32.1391C97.1405 31.5181 96.9324 30.9948 96.5152 30.5705C96.1002 30.1461 95.407 29.7517 94.4391 29.3871C91.8044 28.3878 90.4882 26.9238 90.4882 24.9987C90.4882 23.7406 90.9495 22.7091 91.8734 21.9064C92.7938 21.1025 94.0218 20.7012 95.5574 20.7012C96.9268 20.7012 98.0644 20.9438 98.9724 21.428L98.3697 23.4267C97.5216 22.9575 96.5627 22.7229 95.4896 22.7229C94.6415 22.7229 93.9789 22.9356 93.5039 23.3588C93.1025 23.7372 92.9012 24.1983 92.9012 24.7446C92.9012 25.3495 93.1308 25.8497 93.5921 26.243C93.9936 26.6064 94.7229 26.9997 95.7813 27.4241C97.0761 27.9542 98.027 28.5741 98.6388 29.2848C99.2483 29.9932 99.5525 30.8798 99.5525 31.9378Z" fill="white"/>
<path d="M107.523 27.0342H104.866V32.3921C104.866 33.7548 105.334 34.4356 106.273 34.4356C106.703 34.4356 107.061 34.3977 107.344 34.3218L107.41 36.1836C106.935 36.3642 106.31 36.455 105.535 36.455C104.583 36.455 103.839 36.1595 103.302 35.5695C102.767 34.9784 102.498 33.9871 102.498 32.5945V27.0319H100.915V25.1919H102.498V23.1714L104.866 22.4446V25.1919H107.523V27.0342Z" fill="white"/>
<path d="M119.513 30.621C119.513 32.3173 119.036 33.7099 118.084 34.799C117.085 35.9202 115.76 36.4791 114.108 36.4791C112.516 36.4791 111.248 35.9421 110.303 34.868C109.357 33.7939 108.885 32.438 108.885 30.8039C108.885 29.0938 109.371 27.6931 110.347 26.6041C111.32 25.5139 112.634 24.9688 114.286 24.9688C115.879 24.9688 117.16 25.5058 118.127 26.5811C119.052 27.6241 119.513 28.9708 119.513 30.621ZM117.012 30.7004C117.012 29.6826 116.798 28.8098 116.365 28.0818C115.859 27.2009 115.137 26.7616 114.201 26.7616C113.231 26.7616 112.495 27.2021 111.99 28.0818C111.557 28.8109 111.343 29.6976 111.343 30.7464C111.343 31.7641 111.557 32.637 111.99 33.3638C112.511 34.2447 113.239 34.684 114.179 34.684C115.1 34.684 115.822 34.2355 116.343 33.3408C116.788 32.599 117.012 31.717 117.012 30.7004Z" fill="white"/>
<path d="M127.349 27.3506C127.111 27.3057 126.856 27.2827 126.589 27.2827C125.741 27.2827 125.085 27.6082 124.624 28.2602C124.223 28.8352 124.021 29.562 124.021 30.4395V36.2297H121.612L121.634 28.6696C121.634 27.3977 121.604 26.2397 121.544 25.1955H123.644L123.732 27.3069H123.799C124.053 26.5812 124.454 25.997 125.004 25.5589C125.541 25.1644 126.121 24.9678 126.747 24.9678C126.969 24.9678 127.171 24.9839 127.349 25.0126V27.3506Z" fill="white"/>
<path d="M138.131 30.1899C138.131 30.6292 138.103 30.9995 138.043 31.3019H130.811C130.839 32.3921 131.188 33.2259 131.86 33.8009C132.469 34.3149 133.258 34.5725 134.225 34.5725C135.296 34.5725 136.273 34.3989 137.152 34.0504L137.53 35.7524C136.503 36.2078 135.291 36.4344 133.892 36.4344C132.209 36.4344 130.889 35.9307 129.927 34.9244C128.968 33.9182 128.488 32.5669 128.488 30.8718C128.488 29.2078 128.935 27.822 129.829 26.7169C130.765 25.537 132.031 24.947 133.623 24.947C135.187 24.947 136.371 25.537 137.175 26.7169C137.811 27.6541 138.131 28.8133 138.131 30.1899ZM135.832 29.5539C135.848 28.8271 135.691 28.1992 135.364 27.6691C134.947 26.9871 134.306 26.6467 133.443 26.6467C132.655 26.6467 132.014 26.9791 131.524 27.6461C131.123 28.1762 130.884 28.8122 130.811 29.5528H135.832V29.5539Z" fill="white"/>
<path d="M55.4646 11.5103C55.4646 12.8638 55.0654 13.8827 54.2682 14.567C53.5298 15.1983 52.4805 15.5146 51.1213 15.5146C50.4473 15.5146 49.8706 15.4847 49.3878 15.4249V8.0292C50.0176 7.9257 50.6961 7.8728 51.4288 7.8728C52.7236 7.8728 53.6994 8.15915 54.3576 8.73185C55.0948 9.3793 55.4646 10.3051 55.4646 11.5103ZM54.2151 11.5436C54.2151 10.6662 53.9867 9.9934 53.5298 9.5242C53.073 9.05615 52.4058 8.82155 51.5272 8.82155C51.1541 8.82155 50.8363 8.84685 50.5728 8.89975V14.5221C50.7187 14.5451 50.9856 14.5555 51.3734 14.5555C52.2803 14.5555 52.9803 14.299 53.4733 13.7861C53.9663 13.2732 54.2151 12.5257 54.2151 11.5436Z" fill="white"/>
<path d="M62.0898 12.6924C62.0898 13.5261 61.8557 14.2092 61.3876 14.7451C60.8968 15.296 60.2467 15.5708 59.4348 15.5708C58.6523 15.5708 58.0292 15.3075 57.5644 14.7785C57.1008 14.2506 56.869 13.5848 56.869 12.7821C56.869 11.9426 57.1076 11.2537 57.5871 10.719C58.0665 10.1842 58.7111 9.91626 59.523 9.91626C60.3055 9.91626 60.9342 10.1796 61.4102 10.7075C61.8625 11.2204 62.0898 11.8828 62.0898 12.6924ZM60.8607 12.7315C60.8607 12.2312 60.7544 11.8023 60.5429 11.4446C60.2941 11.0122 59.9402 10.796 59.48 10.796C59.0039 10.796 58.6421 11.0122 58.3933 11.4446C58.1807 11.8023 58.0756 12.2381 58.0756 12.7533C58.0756 13.2536 58.1819 13.6825 58.3933 14.0402C58.65 14.4726 59.0073 14.6888 59.4687 14.6888C59.921 14.6888 60.276 14.4691 60.5316 14.0287C60.751 13.6641 60.8607 13.2317 60.8607 12.7315Z" fill="white"/>
<path d="M70.9732 10.0269L69.3053 15.448H68.2198L67.5289 13.0939C67.3536 12.5063 67.2111 11.9221 67.1003 11.3425H67.0788C66.9759 11.9382 66.8334 12.5212 66.6502 13.0939L65.9164 15.448H64.8184L63.25 10.0269H64.4678L65.0705 12.604C65.2164 13.2135 65.3363 13.7943 65.4324 14.344H65.4539C65.5421 13.8909 65.688 13.3136 65.8938 12.6155L66.6502 10.028H67.6159L68.3408 12.5603C68.516 13.1779 68.6585 13.7724 68.7682 14.3451H68.801C68.8813 13.7874 69.0023 13.1928 69.1628 12.5603L69.8096 10.028H70.9732V10.0269Z" fill="white"/>
<path d="M77.1167 15.4478H75.9316V12.3428C75.9316 11.386 75.5743 10.9076 74.8574 10.9076C74.5057 10.9076 74.2219 11.0387 74.0014 11.302C73.7832 11.5654 73.6724 11.8759 73.6724 12.2312V15.4466H72.4873V11.5757C72.4873 11.0996 72.4726 10.5833 72.4443 10.0244H73.4858L73.5412 10.8719H73.574C73.7119 10.6086 73.9177 10.3912 74.188 10.2176C74.5091 10.0152 74.8687 9.91284 75.2622 9.91284C75.7598 9.91284 76.1736 10.0761 76.5027 10.4039C76.912 10.8052 77.1167 11.4044 77.1167 12.2002V15.4478Z" fill="white"/>
<path d="M80.3846 15.4479H79.2007V7.53931H80.3846V15.4479Z" fill="white"/>
<path d="M87.3615 12.6924C87.3615 13.5261 87.1275 14.2092 86.6593 14.7451C86.1686 15.296 85.5173 15.5708 84.7065 15.5708C83.9229 15.5708 83.2998 15.3075 82.8362 14.7785C82.3726 14.2506 82.1407 13.5848 82.1407 12.7821C82.1407 11.9426 82.3793 11.2537 82.8588 10.719C83.3382 10.1842 83.9828 9.91626 84.7936 9.91626C85.5772 9.91626 86.2048 10.1796 86.6819 10.7075C87.1343 11.2204 87.3615 11.8828 87.3615 12.6924ZM86.1313 12.7315C86.1313 12.2312 86.025 11.8023 85.8135 11.4446C85.5659 11.0122 85.2108 10.796 84.7517 10.796C84.2745 10.796 83.9127 11.0122 83.665 11.4446C83.4524 11.8023 83.3473 12.2381 83.3473 12.7533C83.3473 13.2536 83.4536 13.6825 83.665 14.0402C83.9217 14.4726 84.2791 14.6888 84.7404 14.6888C85.1927 14.6888 85.5466 14.4691 85.8022 14.0287C86.0227 13.6641 86.1313 13.2317 86.1313 12.7315Z" fill="white"/>
<path d="M93.0968 15.4478H92.0328L91.9446 14.8233H91.9118C91.5477 15.3213 91.0286 15.5708 90.3547 15.5708C89.8515 15.5708 89.4444 15.4064 89.138 15.0798C88.8598 14.7831 88.7207 14.4139 88.7207 13.9758C88.7207 13.3134 88.9921 12.8085 89.5383 12.4589C90.0833 12.1093 90.85 11.938 91.8372 11.946V11.8448C91.8372 11.1307 91.4685 10.7742 90.7301 10.7742C90.2043 10.7742 89.7407 10.9087 89.3404 11.1755L89.0995 10.3843C89.5948 10.0727 90.2066 9.91626 90.928 9.91626C92.3211 9.91626 93.0199 10.6638 93.0199 12.1588V14.1552C93.0199 14.6968 93.046 15.1281 93.0968 15.4478ZM91.8665 13.5848V12.7487C90.5594 12.7257 89.9058 13.0903 89.9058 13.8412C89.9058 14.1241 89.9804 14.3357 90.1331 14.4772C90.2857 14.6186 90.4802 14.6888 90.712 14.6888C90.9721 14.6888 91.2152 14.6048 91.4369 14.4381C91.6596 14.2702 91.7964 14.0574 91.8473 13.7964C91.8598 13.7377 91.8665 13.6664 91.8665 13.5848Z" fill="white"/>
<path d="M99.8306 15.4479H98.779L98.7236 14.5773H98.6908C98.3549 15.2397 97.7828 15.5709 96.9788 15.5709C96.3365 15.5709 95.8017 15.3145 95.3776 14.8016C94.9536 14.2887 94.7421 13.6228 94.7421 12.8052C94.7421 11.9277 94.9717 11.217 95.433 10.6742C95.8797 10.1682 96.427 9.91521 97.0783 9.91521C97.7941 9.91521 98.295 10.1602 98.58 10.6512H98.6026V7.53931H99.7888V13.9874C99.7888 14.5152 99.8023 15.0017 99.8306 15.4479ZM98.6026 13.1617V12.2578C98.6026 12.1014 98.5913 11.9749 98.5698 11.8783C98.5031 11.5885 98.3595 11.3447 98.1412 11.148C97.9207 10.9514 97.655 10.8525 97.3486 10.8525C96.9064 10.8525 96.5604 11.0307 96.306 11.3884C96.0538 11.746 95.926 12.2026 95.926 12.7603C95.926 13.2962 96.047 13.7309 96.2902 14.0656C96.5468 14.4221 96.8929 14.6003 97.3259 14.6003C97.7149 14.6003 98.0259 14.452 98.2622 14.1541C98.4906 13.8793 98.6026 13.5481 98.6026 13.1617Z" fill="white"/>
<path d="M109.966 12.6924C109.966 13.5261 109.732 14.2092 109.264 14.7451C108.773 15.296 108.124 15.5708 107.311 15.5708C106.529 15.5708 105.906 15.3075 105.44 14.7785C104.977 14.2506 104.745 13.5848 104.745 12.7821C104.745 11.9426 104.984 11.2537 105.463 10.719C105.942 10.1842 106.587 9.91626 107.4 9.91626C108.181 9.91626 108.811 10.1796 109.286 10.7075C109.738 11.2204 109.966 11.8828 109.966 12.6924ZM108.738 12.7315C108.738 12.2312 108.631 11.8023 108.42 11.4446C108.17 11.0122 107.817 10.796 107.356 10.796C106.881 10.796 106.519 11.0122 106.269 11.4446C106.057 11.8023 105.952 12.2381 105.952 12.7533C105.952 13.2536 106.058 13.6825 106.269 14.0402C106.526 14.4726 106.883 14.6888 107.345 14.6888C107.797 14.6888 108.153 14.4691 108.409 14.0287C108.627 13.6641 108.738 13.2317 108.738 12.7315Z" fill="white"/>
<path d="M116.338 15.4478H115.154V12.3428C115.154 11.386 114.796 10.9076 114.078 10.9076C113.727 10.9076 113.443 11.0387 113.224 11.302C113.004 11.5654 112.894 11.8759 112.894 12.2312V15.4466H111.708V11.5757C111.708 11.0996 111.695 10.5833 111.666 10.0244H112.707L112.762 10.8719H112.795C112.934 10.6086 113.14 10.3912 113.409 10.2176C113.731 10.0152 114.09 9.91284 114.484 9.91284C114.981 9.91284 115.395 10.0761 115.724 10.4039C116.134 10.8052 116.338 11.4044 116.338 12.2002V15.4478Z" fill="white"/>
<path d="M124.313 10.9296H123.008V13.5631C123.008 14.2324 123.24 14.5671 123.699 14.5671C123.912 14.5671 124.088 14.5487 124.227 14.5107L124.258 15.425C124.024 15.5147 123.716 15.5595 123.337 15.5595C122.869 15.5595 122.505 15.4146 122.241 15.1248C121.977 14.835 121.846 14.3474 121.846 13.6632V10.9296H121.067V10.0269H121.846V9.03326L123.007 8.67676V10.0257H124.312V10.9296H124.313Z" fill="white"/>
<path d="M130.587 15.4479H129.4V12.3659C129.4 11.3941 129.043 10.9077 128.327 10.9077C127.778 10.9077 127.402 11.1894 127.197 11.7529C127.161 11.8714 127.141 12.0163 127.141 12.1865V15.4467H125.957V7.53931H127.141V10.8065H127.164C127.537 10.2119 128.072 9.91521 128.765 9.91521C129.256 9.91521 129.662 10.0785 129.984 10.4063C130.385 10.8145 130.587 11.4217 130.587 12.2244V15.4479Z" fill="white"/>
<path d="M137.058 12.4809C137.058 12.6971 137.042 12.8788 137.014 13.0271H133.46C133.476 13.563 133.645 13.9713 133.974 14.2542C134.275 14.5072 134.663 14.6337 135.138 14.6337C135.664 14.6337 136.143 14.5486 136.575 14.3772L136.761 15.2144C136.255 15.4375 135.66 15.5491 134.972 15.5491C134.146 15.5491 133.496 15.3018 133.026 14.8073C132.553 14.3128 132.319 13.6493 132.319 12.8167C132.319 11.999 132.537 11.3182 132.977 10.7754C133.436 10.1958 134.057 9.90601 134.841 9.90601C135.607 9.90601 136.19 10.1958 136.583 10.7754C136.901 11.2354 137.058 11.8047 137.058 12.4809ZM135.927 12.1692C135.936 11.8116 135.858 11.5034 135.698 11.2435C135.492 10.9088 135.179 10.7409 134.755 10.7409C134.368 10.7409 134.052 10.9042 133.812 11.232C133.615 11.493 133.498 11.8047 133.46 12.1692H135.927Z" fill="white"/>
</g>
<defs>
<clipPath id="clip0">
<rect width="152.655" height="46" fill="white"/>
</clipPath>
</defs>
</svg>
