<svg width="153" height="46" viewBox="0 0 153 46" fill="none" xmlns="http://www.w3.org/2000/svg">
<g clip-path="url(#clip0)">
<path fill-rule="evenodd" clip-rule="evenodd" d="M146.999 46H5.65596C2.53872 46 0 43.4075 0 40.25V5.75C0 2.58105 2.53872 0 5.65596 0H146.999C150.113 0 152.655 2.58105 152.655 5.75V40.25C152.655 43.4075 150.113 46 146.999 46Z" fill="black"/>
<path fill-rule="evenodd" clip-rule="evenodd" d="M146.999 0.920573C149.613 0.920573 151.753 3.09152 151.753 5.75V40.25C151.753 42.9085 149.627 45.0794 146.999 45.0794H5.65596C3.04141 45.0794 0.901472 42.9085 0.901472 40.25V5.75C0.901472 3.09152 3.02737 0.920573 5.65596 0.920573H146.999ZM146.999 0H5.65596C2.53872 0 0 2.59252 0 5.75V40.25C0 43.419 2.53872 46 5.65596 46H146.999C150.113 46 152.655 43.419 152.655 40.25V5.75C152.655 2.59252 150.113 0 146.999 0Z" fill="#A6A6A6"/>
<path d="M80.4188 15.2168C79.3994 15.2168 78.54 14.8526 77.8604 14.1356C77.1864 13.4387 76.8101 12.478 76.827 11.4972C76.827 10.4505 77.1752 9.56431 77.8604 8.86169C78.5372 8.14473 79.3966 7.78052 80.416 7.78052C81.4242 7.78052 82.2835 8.14473 82.9743 8.86169C83.6596 9.58725 84.0078 10.4734 84.0078 11.4972C83.9966 12.5469 83.6483 13.433 82.9743 14.1328C82.2975 14.8555 81.4382 15.2168 80.4188 15.2168ZM50.0863 15.2168C49.0894 15.2168 48.2244 14.8583 47.5167 14.15C46.8147 13.4445 46.458 12.5526 46.458 11.5001C46.458 10.4476 46.8147 9.5557 47.5167 8.85022C48.2104 8.14186 49.0753 7.78339 50.0863 7.78339C50.5806 7.78339 51.0608 7.88376 51.5214 8.08738C51.9735 8.28526 52.3414 8.55483 52.6138 8.88463L52.6812 8.9678L51.9202 9.73064L51.8415 9.636C51.4118 9.11406 50.8361 8.85882 50.0751 8.85882C49.3955 8.85882 48.8029 9.10546 48.3143 9.59299C47.8228 10.0834 47.5729 10.7258 47.5729 11.503C47.5729 12.2801 47.8228 12.9225 48.3143 13.4129C48.8029 13.9005 49.3955 14.1471 50.0751 14.1471C50.7996 14.1471 51.409 13.9005 51.8836 13.4129C52.1645 13.1262 52.3386 12.7247 52.4004 12.2171H49.96V11.1445H53.4479L53.4619 11.242C53.4872 11.4227 53.5125 11.6091 53.5125 11.7811C53.5125 12.7705 53.2204 13.5707 52.6419 14.1614C51.9847 14.8612 51.1254 15.2168 50.0863 15.2168ZM90.4163 15.0648H89.3408L86.0466 9.68189L86.0747 10.6512V15.0619H84.9991V7.93538H86.2263L86.26 7.98987L89.3576 13.0602L89.3295 12.0937V7.93538H90.4163V15.0648ZM72.3365 15.0648H71.2469V9.00795H69.3569V7.93538H74.2237V9.00795H72.3337V15.0648H72.3365ZM68.4695 15.0648H67.3826V7.93538H68.4695V15.0648ZM62.3614 15.0648H61.2746V9.00795H59.3846V7.93538H64.2514V9.00795H62.3614V15.0648ZM58.6966 15.0533H54.5291V7.93538H58.6966V9.00795H55.6187V10.9638H58.3961V12.0249H55.6187V13.9808H58.6966V15.0533ZM78.658 13.3986C79.1438 13.8947 79.7336 14.1442 80.4188 14.1442C81.1237 14.1442 81.6994 13.9005 82.1796 13.3986C82.657 12.9111 82.8985 12.2715 82.8985 11.5001C82.8985 10.7286 82.657 10.0863 82.1824 9.60159C81.6966 9.10545 81.104 8.85595 80.4216 8.85595C79.7167 8.85595 79.141 9.09972 78.6636 9.60159C78.1862 10.0891 77.9447 10.7286 77.9447 11.5001C77.9447 12.2715 78.1834 12.9139 78.658 13.3986Z" fill="white"/>
<path fill-rule="evenodd" clip-rule="evenodd" d="M76.7261 25.0191C74.0722 25.0191 71.921 27.0753 71.921 29.9116C71.921 32.7221 74.0862 34.8041 76.7261 34.8041C79.3799 34.8041 81.5311 32.7335 81.5311 29.9116C81.5311 27.0753 79.3799 25.0191 76.7261 25.0191ZM76.7261 32.8655C75.2741 32.8655 74.0244 31.638 74.0244 29.9001C74.0244 28.1364 75.277 26.9348 76.7261 26.9348C78.178 26.9348 79.4277 28.1364 79.4277 29.9001C79.4305 31.6495 78.178 32.8655 76.7261 32.8655ZM66.2426 25.0191C63.5887 25.0191 61.4375 27.0753 61.4375 29.9116C61.4375 32.7221 63.6027 34.8041 66.2426 34.8041C68.8964 34.8041 71.0476 32.7335 71.0476 29.9116C71.0476 27.0753 68.8936 25.0191 66.2426 25.0191ZM66.2426 32.8655C64.7907 32.8655 63.5409 31.638 63.5409 29.9001C63.5409 28.1364 64.7935 26.9348 66.2426 26.9348C67.6945 26.9348 68.9442 28.1364 68.9442 29.9001C68.9442 31.6495 67.6945 32.8655 66.2426 32.8655ZM53.768 26.5132V28.5838H58.6348C58.486 29.7453 58.1096 30.6027 57.5339 31.1906C56.8206 31.9191 55.7197 32.7106 53.7792 32.7106C50.7883 32.7106 48.449 30.2443 48.449 27.19C48.449 24.1358 50.7883 21.6694 53.7792 21.6694C55.394 21.6694 56.5707 22.3204 57.4441 23.1521L58.8819 21.6838C57.6687 20.4965 56.0539 19.5874 53.7904 19.5874C49.6875 19.5874 46.2444 23.0001 46.2444 27.1786C46.2444 31.3685 49.6847 34.7697 53.7904 34.7697C56.0062 34.7697 57.6687 34.0298 58.983 32.636C60.3226 31.2681 60.7467 29.338 60.7467 27.7808C60.7467 27.2961 60.7102 26.8602 60.6343 26.4903H53.7652C53.768 26.4874 53.768 26.5132 53.768 26.5132ZM104.792 28.1249C104.391 27.0266 103.178 25.0076 100.69 25.0076C98.2238 25.0076 96.1737 26.9893 96.1737 29.9001C96.1737 32.6475 98.2013 34.7926 100.928 34.7926C103.119 34.7926 104.394 33.4247 104.919 32.6217L103.293 31.509C102.754 32.3263 102.004 32.8626 100.939 32.8626C99.8639 32.8626 99.1112 32.3636 98.6114 31.3799L105.017 28.6698C105.017 28.6727 104.792 28.1249 104.792 28.1249ZM98.2603 29.7596C98.2098 27.8697 99.6982 26.909 100.763 26.909C101.602 26.909 102.302 27.3305 102.54 27.9443L98.2603 29.7596ZM93.0565 34.5001H95.1599V20.1266H93.0565V34.5001ZM89.6022 26.106H89.5264C89.0518 25.5295 88.1503 25.0076 86.9989 25.0076C84.609 25.0076 82.4073 27.1556 82.4073 29.9145C82.4073 32.6618 84.5978 34.784 86.9989 34.784C88.1363 34.784 89.0518 34.2592 89.5264 33.6713H89.6022V34.3739C89.6022 36.2409 88.6249 37.2475 87.0495 37.2475C85.7604 37.2475 84.9601 36.3011 84.6343 35.5096L82.8061 36.2896C83.3312 37.5802 84.7326 39.1776 87.0467 39.1776C89.5124 39.1776 91.6018 37.6949 91.6018 34.0786V25.3001H89.6135V26.106C89.6163 26.106 89.6022 26.106 89.6022 26.106ZM87.1871 32.8655C85.7352 32.8655 84.522 31.6266 84.522 29.9145C84.522 28.188 85.7352 26.9377 87.1871 26.9377C88.6249 26.9377 89.7398 28.2024 89.7398 29.9145C89.7539 31.6266 88.6278 32.8655 87.1871 32.8655ZM114.641 20.1266H109.612V34.5001H111.715V29.057H114.644C116.972 29.057 119.261 27.3334 119.261 24.5975C119.261 21.8616 116.981 20.1266 114.641 20.1266ZM114.703 27.0495H111.712V22.1168H114.703C116.279 22.1168 117.169 23.4446 117.169 24.5832C117.169 25.7102 116.267 27.0495 114.703 27.0495ZM127.692 24.9933C126.164 24.9933 124.588 25.6844 123.937 27.19L125.802 27.9815C126.203 27.19 126.939 26.9204 127.717 26.9204C128.807 26.9204 129.907 27.5858 129.933 28.7731V28.9251C129.556 28.7071 128.731 28.3744 127.742 28.3744C125.729 28.3744 123.687 29.4986 123.687 31.6065C123.687 33.5365 125.338 34.7754 127.178 34.7754C128.59 34.7754 129.368 34.1244 129.854 33.3702H129.93V34.4829H131.957V28.9767C131.957 26.4128 130.093 24.9933 127.692 24.9933ZM127.428 32.8655C126.74 32.8655 125.776 32.5213 125.776 31.638C125.776 30.5253 126.978 30.1037 128.003 30.1037C128.93 30.1037 129.368 30.3074 129.919 30.5884C129.767 31.8789 128.7 32.854 127.428 32.8655ZM139.355 25.3001L136.939 31.5348H136.864L134.361 25.3001H132.098L135.853 34.0155L133.713 38.8592H135.903L141.68 25.3001H139.355ZM120.421 34.5001H122.524V20.1266H120.421V34.5001Z" fill="white"/>
<path fill-rule="evenodd" clip-rule="evenodd" d="M11.7499 8.66361C11.4241 9.02209 11.236 9.56985 11.236 10.2868V35.7159C11.236 36.4328 11.4241 36.9806 11.7611 37.3247L11.8482 37.4021L25.7999 23.1548V22.8364L11.8369 8.58618L11.7499 8.66361Z" fill="url(#paint0_linear)"/>
<path fill-rule="evenodd" clip-rule="evenodd" d="M30.4422 27.9184L25.7888 23.1664V22.8338L30.4422 18.0818L30.5433 18.1449L36.0477 21.3396C37.6232 22.2459 37.6232 23.7429 36.0477 24.6606L30.5433 27.8553L30.4422 27.9184Z" fill="url(#paint1_linear)"/>
<path fill-rule="evenodd" clip-rule="evenodd" d="M30.5436 27.8552L25.7891 23L11.7502 37.3363C12.2642 37.8984 13.1263 37.9615 14.0896 37.4137L30.5436 27.8552Z" fill="url(#paint2_linear)"/>
<path fill-rule="evenodd" clip-rule="evenodd" d="M30.5436 18.1448L14.0896 8.60067C13.1263 8.03857 12.2614 8.11601 11.7502 8.6781L25.7891 23.0001L30.5436 18.1448Z" fill="url(#paint3_linear)"/>
<path opacity="0.2" fill-rule="evenodd" clip-rule="evenodd" d="M30.4422 27.7522L14.1004 37.2332C13.1877 37.7695 12.3733 37.7322 11.8481 37.2447L11.761 37.3336L11.8481 37.411C12.3733 37.8957 13.1877 37.9358 14.1004 37.3996L30.5545 27.8554L30.4422 27.7522Z" fill="black"/>
<path opacity="0.12" fill-rule="evenodd" clip-rule="evenodd" d="M36.0476 24.4941L30.4281 27.752L30.5292 27.8552L36.0335 24.6605C36.8227 24.2016 37.2102 23.5994 37.2102 23C37.1625 23.5506 36.7609 24.0726 36.0476 24.4941Z" fill="black"/>
<path opacity="0.25" fill-rule="evenodd" clip-rule="evenodd" d="M14.0892 8.76713L36.0475 21.506C36.7608 21.9161 37.1624 22.4524 37.2242 23.0002C37.2242 22.4008 36.8366 21.7986 36.0475 21.3397L14.0892 8.6008C12.5137 7.68022 11.236 8.4488 11.236 10.2871V10.4534C11.236 8.61227 12.5137 7.85803 14.0892 8.76713Z" fill="white"/>
</g>
<defs>
<linearGradient id="paint0_linear" x1="24.5485" y1="10.0125" x2="2.13917" y2="15.8595" gradientUnits="userSpaceOnUse">
<stop stop-color="#00A0FF"/>
<stop offset="0.00657" stop-color="#00A1FF"/>
<stop offset="0.2601" stop-color="#00BEFF"/>
<stop offset="0.5122" stop-color="#00D2FF"/>
<stop offset="0.7604" stop-color="#00DFFF"/>
<stop offset="1" stop-color="#00E3FF"/>
</linearGradient>
<linearGradient id="paint1_linear" x1="38.1023" y1="23.0002" x2="10.8531" y2="23.0002" gradientUnits="userSpaceOnUse">
<stop stop-color="#FFE000"/>
<stop offset="0.4087" stop-color="#FFBD00"/>
<stop offset="0.7754" stop-color="#FFA500"/>
<stop offset="1" stop-color="#FF9C00"/>
</linearGradient>
<linearGradient id="paint2_linear" x1="27.9582" y1="25.6419" x2="9.45553" y2="56.1374" gradientUnits="userSpaceOnUse">
<stop stop-color="#FF3A44"/>
<stop offset="1" stop-color="#C31162"/>
</linearGradient>
<linearGradient id="paint3_linear" x1="8.21512" y1="0.205652" x2="16.4701" y2="13.8256" gradientUnits="userSpaceOnUse">
<stop stop-color="#32A071"/>
<stop offset="0.0685" stop-color="#2DA771"/>
<stop offset="0.4762" stop-color="#15CF74"/>
<stop offset="0.8009" stop-color="#06E775"/>
<stop offset="1" stop-color="#00F076"/>
</linearGradient>
<clipPath id="clip0">
<rect width="152.655" height="46" fill="white"/>
</clipPath>
</defs>
</svg>
